<svg xmlns="http://www.w3.org/2000/svg" xmlns:xlink="http://www.w3.org/1999/xlink" width="169" zoomAndPan="magnify" viewBox="0 0 126.75 31.5" height="42" preserveAspectRatio="xMidYMid meet" version="1.0"><path fill="#c08fff" d="M 18.792969 25.265625 C 18.867188 25.398438 18.914062 25.542969 18.933594 25.695312 C 18.953125 25.847656 18.945312 26 18.902344 26.148438 C 18.863281 26.296875 18.796875 26.433594 18.703125 26.554688 C 18.609375 26.679688 18.496094 26.78125 18.363281 26.859375 C 18.183594 26.953125 17.992188 27.007812 17.789062 27.015625 L 10.605469 27.015625 C 9.59375 27.007812 8.648438 26.75 7.777344 26.238281 C 6.902344 25.730469 6.210938 25.039062 5.703125 24.164062 L 2.078125 17.949219 C 2 17.8125 1.953125 17.671875 1.933594 17.515625 C 1.914062 17.363281 1.925781 17.210938 1.964844 17.0625 C 2.007812 16.914062 2.074219 16.777344 2.167969 16.65625 C 2.265625 16.535156 2.378906 16.4375 2.511719 16.359375 C 2.695312 16.277344 2.882812 16.238281 3.082031 16.242188 L 4.308594 16.242188 L 7.621094 21.992188 C 8.027344 22.6875 8.574219 23.234375 9.265625 23.636719 C 9.957031 24.039062 10.703125 24.246094 11.503906 24.253906 L 18.148438 24.253906 L 18.761719 25.308594 Z M 18.792969 25.265625 " fill-opacity="1" fill-rule="nonzero"/><path fill="#249dee" d="M 23.082031 20.914062 C 23.171875 21.070312 23.230469 21.238281 23.253906 21.417969 C 23.277344 21.597656 23.265625 21.773438 23.21875 21.945312 C 23.171875 22.121094 23.089844 22.277344 22.980469 22.421875 C 22.871094 22.5625 22.738281 22.679688 22.578125 22.769531 C 22.371094 22.890625 22.144531 22.953125 21.902344 22.945312 L 12.457031 22.945312 C 11.589844 22.949219 10.78125 22.738281 10.027344 22.304688 C 9.273438 21.871094 8.683594 21.277344 8.25 20.523438 L 5.753906 16.199219 L 3.539062 12.316406 C 3.449219 12.160156 3.390625 11.992188 3.363281 11.816406 C 3.339844 11.636719 3.347656 11.460938 3.394531 11.285156 C 3.441406 11.113281 3.519531 10.953125 3.628906 10.808594 C 3.738281 10.667969 3.871094 10.550781 4.027344 10.460938 C 4.234375 10.335938 4.460938 10.273438 4.707031 10.277344 L 5.886719 10.277344 L 9.289062 16.183594 L 9.984375 17.371094 C 10.429688 18.144531 11.039062 18.757812 11.8125 19.203125 C 12.585938 19.652344 13.417969 19.875 14.3125 19.875 L 22.484375 19.875 L 23.074219 20.902344 Z M 23.082031 20.914062 " fill-opacity="1" fill-rule="nonzero"/><path fill="#2fb775" d="M 27.527344 16.308594 L 21.621094 6.023438 C 21.285156 5.445312 20.828125 4.988281 20.25 4.65625 C 19.671875 4.320312 19.046875 4.15625 18.378906 4.15625 L 6.476562 4.15625 C 6.199219 4.15625 5.941406 4.226562 5.703125 4.363281 C 5.460938 4.503906 5.273438 4.691406 5.132812 4.929688 C 4.996094 5.171875 4.925781 5.429688 4.925781 5.707031 C 4.925781 5.984375 4.996094 6.242188 5.132812 6.480469 L 6.609375 9.058594 L 7.347656 10.304688 L 10.753906 16.210938 L 11.078125 16.78125 C 11.410156 17.359375 11.867188 17.816406 12.445312 18.152344 C 13.027344 18.488281 13.648438 18.65625 14.320312 18.65625 L 26.183594 18.65625 C 26.390625 18.65625 26.585938 18.613281 26.777344 18.535156 C 26.964844 18.457031 27.132812 18.34375 27.28125 18.199219 C 27.425781 18.050781 27.535156 17.882812 27.617188 17.691406 C 27.695312 17.503906 27.734375 17.304688 27.734375 17.097656 C 27.734375 16.816406 27.664062 16.554688 27.527344 16.308594 Z M 23.644531 16.449219 C 23.160156 16.402344 22.710938 16.25 22.300781 15.988281 C 21.890625 15.730469 21.558594 15.390625 21.308594 14.972656 C 20.984375 14.417969 21.023438 13.925781 21.371094 13.6875 L 20.46875 12.128906 C 20.214844 11.710938 19.84375 11.464844 19.359375 11.390625 L 13.242188 11.390625 C 13.253906 11.445312 13.277344 11.492188 13.308594 11.539062 L 14.539062 13.660156 C 15.199219 13.917969 15.71875 14.34375 16.097656 14.941406 C 16.5625 15.71875 16.289062 16.417969 15.476562 16.417969 C 14.996094 16.371094 14.546875 16.21875 14.140625 15.957031 C 13.730469 15.699219 13.398438 15.359375 13.152344 14.941406 C 12.828125 14.382812 12.871094 13.894531 13.203125 13.660156 L 12.304688 12.101562 C 12.015625 11.675781 11.984375 11.230469 12.214844 10.773438 C 12.445312 10.394531 12.785156 10.21875 13.226562 10.238281 L 15.367188 10.238281 L 14.246094 8.296875 C 13.589844 8.058594 13.070312 7.652344 12.679688 7.074219 C 12.214844 6.296875 12.480469 5.632812 13.292969 5.632812 C 13.777344 5.679688 14.222656 5.832031 14.632812 6.09375 C 15.042969 6.351562 15.371094 6.691406 15.617188 7.109375 C 15.949219 7.679688 15.898438 8.164062 15.566406 8.410156 L 16.734375 10.335938 L 19.40625 10.335938 C 19.839844 10.367188 20.238281 10.5 20.609375 10.726562 C 20.976562 10.953125 21.273438 11.253906 21.496094 11.628906 L 22.726562 13.738281 C 23.390625 14 23.90625 14.433594 24.277344 15.039062 C 24.742188 15.8125 24.476562 16.476562 23.65625 16.476562 Z M 23.644531 16.449219 " fill-opacity="1" fill-rule="nonzero"/><path fill="#ffffff" d="M 42.09375 9.058594 L 42.09375 14.226562 L 36.769531 14.226562 L 36.769531 9.058594 L 34.207031 9.058594 L 34.207031 21.867188 L 36.769531 21.867188 L 36.769531 16.523438 L 43.9375 16.523438 C 43.675781 16.574219 43.429688 16.671875 43.203125 16.808594 C 42.972656 16.945312 42.773438 17.117188 42.605469 17.320312 C 42.433594 17.527344 42.304688 17.753906 42.210938 18.003906 C 42.121094 18.257812 42.074219 18.515625 42.070312 18.78125 L 42.070312 21.882812 L 44.632812 21.882812 L 44.632812 9.058594 Z M 42.09375 9.058594 " fill-opacity="1" fill-rule="nonzero"/><path fill="#ffffff" d="M 45.9375 17.128906 C 45.9375 16.796875 45.964844 16.464844 46.027344 16.136719 C 46.089844 15.8125 46.179688 15.492188 46.304688 15.183594 C 46.429688 14.875 46.582031 14.582031 46.765625 14.300781 C 46.945312 14.023438 47.15625 13.765625 47.386719 13.527344 C 47.621094 13.289062 47.875 13.078125 48.148438 12.890625 C 48.425781 12.703125 48.714844 12.542969 49.019531 12.410156 C 49.328125 12.28125 49.644531 12.179688 49.96875 12.113281 C 50.292969 12.042969 50.625 12.007812 50.957031 12.003906 C 51.289062 12 51.621094 12.03125 51.945312 12.09375 C 52.273438 12.152344 52.59375 12.246094 52.902344 12.371094 C 53.210938 12.496094 53.503906 12.648438 53.78125 12.828125 C 54.0625 13.011719 54.320312 13.21875 54.558594 13.453125 C 54.796875 13.683594 55.007812 13.9375 55.195312 14.210938 C 55.386719 14.488281 55.542969 14.777344 55.675781 15.085938 C 55.804688 15.390625 55.90625 15.707031 55.972656 16.03125 C 56.042969 16.359375 56.078125 16.6875 56.082031 17.019531 C 56.085938 17.351562 56.058594 17.683594 55.996094 18.011719 C 55.933594 18.335938 55.84375 18.65625 55.71875 18.964844 C 55.59375 19.273438 55.441406 19.566406 55.261719 19.847656 C 55.078125 20.125 54.871094 20.382812 54.636719 20.621094 C 54.40625 20.859375 54.152344 21.074219 53.878906 21.261719 C 53.601562 21.449219 53.3125 21.609375 53.007812 21.738281 C 52.699219 21.871094 52.382812 21.972656 52.058594 22.039062 C 51.734375 22.109375 51.402344 22.144531 51.070312 22.148438 L 50.988281 22.148438 C 50.664062 22.15625 50.34375 22.132812 50.023438 22.078125 C 49.703125 22.019531 49.390625 21.933594 49.085938 21.820312 C 48.785156 21.703125 48.496094 21.554688 48.222656 21.382812 C 47.945312 21.210938 47.691406 21.011719 47.457031 20.785156 C 47.222656 20.5625 47.007812 20.316406 46.820312 20.054688 C 46.636719 19.789062 46.476562 19.507812 46.34375 19.210938 C 46.210938 18.914062 46.109375 18.605469 46.039062 18.289062 C 45.964844 17.972656 45.925781 17.652344 45.917969 17.328125 Z M 51.011719 19.851562 C 51.355469 19.851562 51.683594 19.789062 52 19.660156 C 52.320312 19.527344 52.601562 19.34375 52.84375 19.101562 C 53.085938 18.859375 53.273438 18.582031 53.40625 18.265625 C 53.539062 17.949219 53.609375 17.617188 53.609375 17.277344 C 53.613281 17.226562 53.613281 17.175781 53.609375 17.128906 C 53.664062 16.765625 53.640625 16.410156 53.542969 16.058594 C 53.449219 15.707031 53.285156 15.386719 53.054688 15.105469 C 52.820312 14.824219 52.542969 14.597656 52.21875 14.433594 C 51.894531 14.265625 51.546875 14.175781 51.183594 14.152344 C 50.820312 14.132812 50.464844 14.1875 50.125 14.316406 C 49.78125 14.445312 49.480469 14.636719 49.21875 14.890625 C 48.960938 15.148438 48.761719 15.445312 48.625 15.785156 C 48.492188 16.125 48.429688 16.476562 48.441406 16.839844 C 48.433594 16.9375 48.433594 17.03125 48.441406 17.128906 C 48.425781 17.472656 48.472656 17.804688 48.589844 18.128906 C 48.707031 18.453125 48.878906 18.742188 49.109375 18.996094 C 49.339844 19.25 49.609375 19.453125 49.921875 19.597656 C 50.230469 19.746094 50.558594 19.828125 50.902344 19.84375 Z M 51.011719 19.851562 " fill-opacity="1" fill-rule="nonzero"/><path fill="#ffffff" d="M 57.175781 9.058594 L 59.648438 9.058594 L 59.648438 21.867188 L 57.175781 21.867188 Z M 57.175781 9.058594 " fill-opacity="1" fill-rule="nonzero"/><path fill="#ffffff" d="M 60.75 17.171875 C 60.738281 16.855469 60.761719 16.539062 60.8125 16.222656 C 60.867188 15.910156 60.949219 15.601562 61.058594 15.304688 C 61.171875 15.007812 61.3125 14.722656 61.480469 14.453125 C 61.652344 14.183594 61.84375 13.929688 62.0625 13.699219 C 62.28125 13.464844 62.519531 13.257812 62.777344 13.070312 C 63.035156 12.886719 63.3125 12.726562 63.601562 12.597656 C 63.890625 12.464844 64.191406 12.363281 64.5 12.292969 C 64.8125 12.21875 65.125 12.175781 65.445312 12.167969 C 65.753906 12.136719 66.058594 12.15625 66.363281 12.21875 C 66.667969 12.285156 66.953125 12.390625 67.226562 12.542969 C 67.496094 12.699219 67.738281 12.886719 67.949219 13.113281 C 68.164062 13.339844 68.335938 13.59375 68.472656 13.871094 L 68.472656 12.351562 L 70.9375 12.351562 L 70.9375 21.867188 L 68.523438 21.867188 L 68.523438 20.316406 C 68.398438 20.617188 68.226562 20.886719 68.011719 21.132812 C 67.796875 21.378906 67.550781 21.582031 67.273438 21.746094 C 66.992188 21.910156 66.691406 22.027344 66.375 22.097656 C 66.058594 22.164062 65.738281 22.183594 65.414062 22.148438 C 65.097656 22.136719 64.785156 22.097656 64.476562 22.023438 C 64.167969 21.953125 63.871094 21.851562 63.582031 21.722656 C 63.292969 21.589844 63.019531 21.433594 62.765625 21.25 C 62.507812 21.0625 62.269531 20.855469 62.054688 20.625 C 61.835938 20.394531 61.644531 20.144531 61.476562 19.875 C 61.308594 19.605469 61.171875 19.324219 61.058594 19.027344 C 60.945312 18.730469 60.863281 18.429688 60.8125 18.117188 C 60.761719 17.804688 60.738281 17.488281 60.75 17.171875 Z M 65.835938 19.933594 C 66.183594 19.941406 66.519531 19.882812 66.84375 19.757812 C 67.167969 19.632812 67.453125 19.449219 67.703125 19.207031 C 67.953125 18.96875 68.148438 18.6875 68.289062 18.371094 C 68.429688 18.050781 68.5 17.71875 68.507812 17.371094 L 68.507812 17.210938 C 68.523438 16.859375 68.472656 16.515625 68.351562 16.1875 C 68.234375 15.855469 68.054688 15.5625 67.816406 15.300781 C 67.578125 15.042969 67.300781 14.839844 66.980469 14.691406 C 66.664062 14.542969 66.328125 14.460938 65.976562 14.449219 L 65.835938 14.449219 C 65.496094 14.445312 65.167969 14.511719 64.851562 14.636719 C 64.535156 14.765625 64.257812 14.945312 64.011719 15.183594 C 63.765625 15.417969 63.574219 15.691406 63.4375 16.003906 C 63.300781 16.316406 63.226562 16.640625 63.214844 16.980469 C 63.210938 17.035156 63.210938 17.089844 63.214844 17.144531 C 63.203125 17.492188 63.257812 17.832031 63.382812 18.160156 C 63.503906 18.484375 63.683594 18.777344 63.925781 19.03125 C 64.164062 19.289062 64.441406 19.488281 64.761719 19.632812 C 65.078125 19.777344 65.414062 19.855469 65.761719 19.867188 L 65.835938 19.867188 Z M 65.835938 19.933594 " fill-opacity="1" fill-rule="nonzero"/><path fill="#ffffff" d="M 70.9375 9.058594 L 70.9375 11.382812 L 76.535156 11.382812 C 76.257812 11.449219 76.003906 11.554688 75.765625 11.703125 C 75.523438 11.855469 75.316406 12.039062 75.144531 12.261719 C 74.96875 12.480469 74.832031 12.726562 74.738281 12.992188 C 74.644531 13.257812 74.601562 13.53125 74.597656 13.8125 L 74.597656 21.890625 L 77.152344 21.890625 L 77.152344 11.363281 L 80.84375 11.363281 L 80.84375 9.027344 Z M 70.9375 9.058594 " fill-opacity="1" fill-rule="nonzero"/><path fill="#ffffff" d="M 78.941406 17.128906 C 78.933594 16.808594 78.957031 16.488281 79.011719 16.171875 C 79.066406 15.855469 79.152344 15.546875 79.265625 15.246094 C 79.382812 14.949219 79.527344 14.664062 79.699219 14.390625 C 79.871094 14.121094 80.066406 13.867188 80.289062 13.632812 C 80.507812 13.402344 80.75 13.191406 81.011719 13.007812 C 81.277344 12.824219 81.554688 12.664062 81.847656 12.535156 C 82.140625 12.40625 82.445312 12.304688 82.757812 12.234375 C 83.070312 12.164062 83.386719 12.125 83.710938 12.113281 L 83.863281 12.113281 C 84.179688 12.113281 84.496094 12.144531 84.804688 12.203125 C 85.113281 12.265625 85.417969 12.355469 85.710938 12.472656 C 86 12.59375 86.28125 12.742188 86.542969 12.914062 C 86.808594 13.089844 87.050781 13.289062 87.273438 13.511719 C 87.5 13.734375 87.699219 13.976562 87.875 14.242188 C 88.050781 14.503906 88.203125 14.78125 88.324219 15.070312 C 88.445312 15.363281 88.535156 15.664062 88.597656 15.976562 C 88.660156 16.285156 88.691406 16.597656 88.691406 16.914062 L 88.691406 17.128906 C 88.695312 17.421875 88.667969 17.714844 88.621094 18.007812 L 81.503906 18.007812 C 81.550781 18.28125 81.640625 18.535156 81.78125 18.777344 C 81.917969 19.015625 82.09375 19.222656 82.308594 19.402344 C 82.523438 19.578125 82.757812 19.710938 83.019531 19.804688 C 83.28125 19.894531 83.550781 19.9375 83.828125 19.933594 C 84.300781 19.941406 84.746094 19.832031 85.164062 19.605469 C 85.578125 19.375 85.910156 19.058594 86.160156 18.65625 L 88.082031 20.132812 C 87.582031 20.800781 86.960938 21.3125 86.207031 21.667969 C 85.457031 22.027344 84.667969 22.183594 83.835938 22.148438 C 83.519531 22.15625 83.207031 22.132812 82.894531 22.078125 C 82.582031 22.023438 82.28125 21.9375 81.984375 21.824219 C 81.691406 21.707031 81.410156 21.566406 81.144531 21.398438 C 80.878906 21.226562 80.628906 21.035156 80.402344 20.816406 C 80.171875 20.597656 79.96875 20.359375 79.785156 20.101562 C 79.605469 19.839844 79.449219 19.566406 79.320312 19.277344 C 79.195312 18.988281 79.09375 18.691406 79.027344 18.382812 C 78.957031 18.074219 78.917969 17.761719 78.910156 17.445312 L 78.910156 17.128906 Z M 86.207031 16.160156 C 86.144531 15.890625 86.039062 15.636719 85.890625 15.398438 C 85.746094 15.164062 85.5625 14.957031 85.347656 14.785156 C 85.132812 14.609375 84.890625 14.472656 84.628906 14.378906 C 84.367188 14.285156 84.097656 14.238281 83.820312 14.234375 C 83.542969 14.230469 83.273438 14.273438 83.015625 14.367188 C 82.753906 14.457031 82.515625 14.59375 82.300781 14.769531 C 82.089844 14.945312 81.914062 15.152344 81.773438 15.394531 C 81.636719 15.632812 81.542969 15.886719 81.496094 16.160156 Z M 86.207031 16.160156 " fill-opacity="1" fill-rule="nonzero"/><path fill="#ffffff" d="M 89.277344 17.171875 C 89.265625 16.855469 89.289062 16.539062 89.339844 16.222656 C 89.394531 15.910156 89.476562 15.601562 89.589844 15.304688 C 89.703125 15.007812 89.84375 14.722656 90.011719 14.453125 C 90.183594 14.183594 90.375 13.929688 90.59375 13.699219 C 90.8125 13.464844 91.050781 13.257812 91.308594 13.070312 C 91.570312 12.886719 91.84375 12.726562 92.132812 12.597656 C 92.425781 12.464844 92.726562 12.363281 93.035156 12.292969 C 93.347656 12.21875 93.660156 12.175781 93.980469 12.167969 C 94.289062 12.136719 94.59375 12.15625 94.898438 12.21875 C 95.199219 12.285156 95.488281 12.394531 95.757812 12.546875 C 96.027344 12.699219 96.265625 12.886719 96.480469 13.113281 C 96.691406 13.339844 96.863281 13.59375 97 13.871094 L 97 12.351562 L 99.457031 12.351562 L 99.457031 21.867188 L 97.058594 21.867188 L 97.058594 20.316406 C 96.929688 20.617188 96.761719 20.886719 96.546875 21.132812 C 96.332031 21.375 96.085938 21.582031 95.804688 21.746094 C 95.527344 21.910156 95.226562 22.027344 94.910156 22.09375 C 94.59375 22.164062 94.273438 22.183594 93.949219 22.148438 C 93.632812 22.136719 93.320312 22.097656 93.011719 22.027344 C 92.703125 21.953125 92.402344 21.851562 92.113281 21.722656 C 91.828125 21.59375 91.554688 21.433594 91.296875 21.25 C 91.039062 21.066406 90.800781 20.859375 90.582031 20.628906 C 90.367188 20.398438 90.171875 20.148438 90.003906 19.878906 C 89.839844 19.609375 89.699219 19.328125 89.585938 19.03125 C 89.472656 18.734375 89.390625 18.429688 89.339844 18.117188 C 89.289062 17.804688 89.265625 17.488281 89.277344 17.171875 Z M 94.386719 19.933594 C 94.734375 19.941406 95.066406 19.882812 95.390625 19.757812 C 95.714844 19.632812 96.003906 19.449219 96.253906 19.207031 C 96.503906 18.96875 96.699219 18.6875 96.839844 18.371094 C 96.976562 18.050781 97.050781 17.71875 97.058594 17.371094 L 97.058594 17.210938 C 97.074219 16.855469 97.019531 16.515625 96.898438 16.183594 C 96.777344 15.855469 96.597656 15.558594 96.359375 15.300781 C 96.117188 15.039062 95.839844 14.835938 95.519531 14.691406 C 95.199219 14.542969 94.863281 14.460938 94.511719 14.449219 L 94.386719 14.449219 C 94.042969 14.441406 93.714844 14.503906 93.394531 14.628906 C 93.078125 14.753906 92.792969 14.9375 92.546875 15.171875 C 92.300781 15.410156 92.109375 15.683594 91.96875 15.996094 C 91.832031 16.3125 91.757812 16.636719 91.75 16.980469 L 91.75 17.15625 C 91.738281 17.507812 91.796875 17.84375 91.921875 18.171875 C 92.042969 18.5 92.226562 18.789062 92.464844 19.046875 C 92.703125 19.300781 92.984375 19.5 93.300781 19.644531 C 93.621094 19.789062 93.953125 19.871094 94.304688 19.882812 L 94.386719 19.882812 Z M 94.386719 19.933594 " fill-opacity="1" fill-rule="nonzero"/><path fill="#ffffff" d="M 100.917969 12.351562 L 103.355469 12.351562 L 103.355469 13.738281 C 103.484375 13.472656 103.652344 13.230469 103.855469 13.011719 C 104.058594 12.796875 104.289062 12.617188 104.550781 12.472656 C 104.808594 12.328125 105.085938 12.226562 105.375 12.167969 C 105.667969 12.109375 105.960938 12.097656 106.257812 12.128906 C 106.90625 12.105469 107.515625 12.253906 108.082031 12.578125 C 108.648438 12.902344 109.085938 13.351562 109.394531 13.925781 C 109.542969 13.628906 109.730469 13.363281 109.957031 13.125 C 110.183594 12.890625 110.441406 12.691406 110.726562 12.53125 C 111.015625 12.371094 111.320312 12.257812 111.640625 12.1875 C 111.960938 12.121094 112.285156 12.101562 112.613281 12.128906 C 112.863281 12.128906 113.109375 12.152344 113.355469 12.203125 C 113.597656 12.253906 113.835938 12.328125 114.0625 12.429688 C 114.292969 12.527344 114.507812 12.648438 114.710938 12.792969 C 114.914062 12.9375 115.101562 13.097656 115.273438 13.28125 C 115.441406 13.464844 115.59375 13.660156 115.722656 13.875 C 115.851562 14.085938 115.957031 14.3125 116.039062 14.546875 C 116.125 14.78125 116.183594 15.023438 116.214844 15.269531 C 116.25 15.515625 116.257812 15.765625 116.238281 16.011719 L 116.238281 21.839844 L 113.757812 21.839844 L 113.757812 16.671875 C 113.757812 15.023438 112.984375 14.34375 111.859375 14.34375 C 110.738281 14.34375 109.917969 14.867188 109.917969 16.671875 L 109.917969 21.890625 L 107.46875 21.890625 L 107.46875 16.648438 C 107.46875 15 106.648438 14.324219 105.414062 14.324219 C 104.382812 14.324219 103.445312 15.0625 103.445312 16.648438 L 103.445312 21.867188 L 100.949219 21.867188 Z M 100.917969 12.351562 " fill-opacity="1" fill-rule="nonzero"/><path fill="#ffffff" d="M 116.875 20.441406 L 118.542969 18.886719 C 119.097656 19.621094 119.835938 20.015625 120.757812 20.058594 C 121.539062 20.058594 122.078125 19.636719 122.078125 19.078125 C 122.078125 18.515625 121.84375 18.292969 120.34375 17.953125 C 117.789062 17.351562 117.390625 16.199219 117.390625 15 C 117.390625 13.339844 118.710938 12.101562 120.941406 12.101562 C 121.640625 12.039062 122.304688 12.15625 122.941406 12.457031 C 123.574219 12.757812 124.089844 13.195312 124.484375 13.777344 L 122.691406 15.140625 C 122.523438 14.832031 122.292969 14.582031 121.988281 14.398438 C 121.6875 14.214844 121.359375 14.121094 121.007812 14.117188 C 120.335938 14.117188 119.820312 14.375 119.820312 14.964844 C 119.820312 15.289062 119.964844 15.585938 121.105469 15.878906 C 123.863281 16.617188 124.507812 17.617188 124.507812 19.039062 C 124.507812 20.796875 122.914062 22.148438 120.816406 22.148438 C 120.066406 22.171875 119.347656 22.039062 118.65625 21.75 C 117.964844 21.457031 117.367188 21.039062 116.859375 20.488281 Z M 116.875 20.441406 " fill-opacity="1" fill-rule="nonzero"/></svg>